<?xml version="1.0" standalone="no"?>
<!DOCTYPE svg PUBLIC "-//W3C//DTD SVG 20010904//EN"
 "http://www.w3.org/TR/2001/REC-SVG-20010904/DTD/svg10.dtd">
<svg version="1.0" xmlns="http://www.w3.org/2000/svg"
 width="310.000000pt" height="310.000000pt" viewBox="0 0 310.000000 310.000000"
 preserveAspectRatio="xMidYMid meet">
<metadata>
Created by potrace 1.11, written by Peter Selinger 2001-2013
</metadata>
<g transform="translate(0.000000,310.000000) scale(0.100000,-0.100000)"
fill="#000000" stroke="none">
<path d="M629 3084 c-306 -65 -550 -313 -614 -619 -23 -111 -23 -1719 0 -1830
64 -310 310 -556 620 -620 111 -23 1719 -23 1830 0 310 64 556 310 620 620 23
111 23 1719 0 1830 -64 310 -310 556 -620 620 -106 22 -1734 21 -1836 -1z
m519 -1381 c-4 -503 -4 -520 -26 -584 -27 -82 -84 -149 -155 -183 -66 -32
-181 -50 -264 -41 l-63 7 0 92 0 92 58 -4 c116 -8 191 33 217 121 12 42 15
131 15 534 l0 483 111 0 110 0 -3 -517z m1007 493 c119 -33 202 -92 239 -170
40 -84 40 -208 0 -291 -23 -50 -87 -110 -147 -139 -44 -21 -49 -26 -32 -32 56
-19 123 -54 152 -78 92 -78 114 -273 45 -399 -31 -58 -74 -98 -144 -133 -90
-46 -158 -54 -465 -54 l-283 0 0 661 0 662 288 -6 c223 -4 300 -9 347 -21z"/>
<path d="M1740 1856 l0 -198 168 4 c144 3 173 6 213 24 66 31 93 73 97 155 6
94 -20 142 -94 176 -50 23 -72 26 -220 31 l-164 5 0 -197z"/>
<path d="M1740 1291 l0 -201 165 0 c142 0 172 3 220 21 80 30 110 77 110 173
0 95 -26 138 -104 174 -52 24 -69 27 -223 30 l-168 4 0 -201z"/>
</g>
</svg>
