<?xml version="1.0" encoding="UTF-8"?>
<svg width="48px" height="48px" viewBox="0 0 48 48" version="1.1" xmlns="http://www.w3.org/2000/svg" xmlns:xlink="http://www.w3.org/1999/xlink">
    <!-- Generator: Sketch 58 (84663) - https://sketch.com -->
    <title>Combined Shape</title>
    <desc>Created with Sketch.</desc>
    <g id="--Case-Study:-Green-Aisle" stroke="none" stroke-width="1" fill="none" fill-rule="evenodd">
        <g id="case-studies/green-aisle-desktop" transform="translate(-696.000000, -14406.000000)" fill="#FFFFFF">
            <g id="Group-48-Copy" transform="translate(0.000000, 14310.000000)">
                <g id="Group-49" transform="translate(400.000000, 96.000000)">
                    <g id="Group-50" transform="translate(296.000000, 0.000000)">
                        <path d="M24,0 C37.254834,0 48,10.745166 48,24 C48,37.254834 37.254834,48 24,48 C10.745166,48 0,37.254834 0,24 C0,10.745166 10.745166,0 24,0 Z M22.866,18 L17.346,18 L17.346,24 L19.218,24 L17.25,30.72 L20.226,30.72 L22.866,24 L22.866,18 Z M31.074,18 L25.554,18 L25.554,24 L27.426,24 L25.458,30.72 L28.434,30.72 L31.074,24 L31.074,18 Z" id="Combined-Shape"></path>
                    </g>
                </g>
            </g>
        </g>
    </g>
</svg>